<svg width="980" height="500" viewBox="0 0 980 500" fill="none" xmlns="http://www.w3.org/2000/svg">
  <defs>
    <style>
      .mono {
        font-family: ui-monospace, SFMono-Regular, Menlo, Monaco, Consolas, "Liberation Mono", "Courier New", monospace;
      }

      .white {
        fill: #e6edf3;
      }

      .muted {
        fill: #8b949e;
      }

      .green {
        fill: #39ff88;
      }

      .cursor {
        animation: blink 1s infinite;
      }

      @keyframes blink {
        0%, 45% { opacity: 1; }
        46%, 100% { opacity: 0; }
      }
    </style>
  </defs>

  <rect width="980" height="500" rx="14" fill="#0d1117"/>
  <rect x="1" y="1" width="978" height="498" rx="14" stroke="#30363d"/>

  <rect x="24" y="24" width="932" height="452" rx="10" fill="#030712"/>
  <rect x="24" y="24" width="932" height="452" rx="10" stroke="#30363d"/>

  <rect x="24" y="24" width="932" height="34" rx="10" fill="#05070a"/>
  <path d="M24 58H956" stroke="#30363d"/>

  <circle cx="48" cy="41" r="6" fill="#ff5f56"/>
  <circle cx="70" cy="41" r="6" fill="#ffbd2e"/>
  <circle cx="92" cy="41" r="6" fill="#27c93f"/>

  <text x="405" y="46" class="mono muted" font-size="12">
    github-stats - João Pedro
  </text>

  <text x="52" y="96" class="mono green" font-size="16" font-weight="700">$ gh about</text>

  <text x="52" y="126" class="mono white" font-size="15" font-weight="700">
    Junior Full-Stack Developer at TironiTech.
  </text>

  <text x="52" y="153" class="mono white" font-size="15" font-weight="700">
    Building production systems with React, Node.js,
  </text>

  <text x="52" y="180" class="mono white" font-size="15" font-weight="700">
    APIs, databases, deploy and business logic.
  </text>

  <text x="52" y="235" class="mono green" font-size="16" font-weight="700">$ gh langs</text>

  <text x="52" y="265" class="mono white" font-size="15" font-weight="700">JavaScript</text>
  <rect x="205" y="253" width="520" height="10" rx="5" fill="#111827"/>
  <rect x="205" y="253" width="0" height="10" rx="5" fill="#3b82f6">
    <animate attributeName="width" from="0" to="420" dur="1.2s" fill="freeze"/>
  </rect>
  <text x="750" y="265" class="mono muted" font-size="13">45%</text>

  <text x="52" y="293" class="mono white" font-size="15" font-weight="700">TypeScript</text>
  <rect x="205" y="281" width="520" height="10" rx="5" fill="#111827"/>
  <rect x="205" y="281" width="0" height="10" rx="5" fill="#8b5cf6">
    <animate attributeName="width" from="0" to="310" dur="1.4s" fill="freeze"/>
  </rect>
  <text x="750" y="293" class="mono muted" font-size="13">30%</text>

  <text x="52" y="321" class="mono white" font-size="15" font-weight="700">CSS</text>
  <rect x="205" y="309" width="520" height="10" rx="5" fill="#111827"/>
  <rect x="205" y="309" width="0" height="10" rx="5" fill="#22c55e">
    <animate attributeName="width" from="0" to="185" dur="1.6s" fill="freeze"/>
  </rect>
  <text x="750" y="321" class="mono muted" font-size="13">15%</text>

  <text x="52" y="349" class="mono white" font-size="15" font-weight="700">HTML</text>
  <rect x="205" y="337" width="520" height="10" rx="5" fill="#111827"/>
  <rect x="205" y="337" width="0" height="10" rx="5" fill="#f97316">
    <animate attributeName="width" from="0" to="120" dur="1.8s" fill="freeze"/>
  </rect>
  <text x="750" y="349" class="mono muted" font-size="13">10%</text>

  <text x="52" y="405" class="mono green" font-size="16" font-weight="700">$ gh stack --production</text>

  <text x="52" y="435" class="mono white" font-size="15" font-weight="700">
    React · Node.js · Express · PostgreSQL · APIs · Vercel · Render
  </text>

  <rect x="52" y="452" width="12" height="20" fill="#39ff88" class="cursor"/>
</svg>
