<svg width="980" height="620" viewBox="0 0 980 620" fill="none" xmlns="http://www.w3.org/2000/svg">
  <defs>
    <linearGradient id="stroke" x1="0" y1="0" x2="980" y2="620" gradientUnits="userSpaceOnUse">
      <stop stop-color="#38BDF8"/>
      <stop offset="0.55" stop-color="#8B5CF6"/>
      <stop offset="1" stop-color="#C084FC"/>
    </linearGradient>

    <filter id="softGlow" x="-20%" y="-20%" width="140%" height="140%">
      <feGaussianBlur stdDeviation="18" result="blur"/>
      <feColorMatrix in="blur" type="matrix" values="0 0 0 0 0.25 0 0 0 0 0.18 0 0 0 0 0.9 0 0 0 0.55 0"/>
      <feBlend in="SourceGraphic" mode="screen"/>
    </filter>

    <style>
      .mono {
        font-family: ui-monospace, SFMono-Regular, Menlo, Monaco, Consolas, "Liberation Mono", "Courier New", monospace;
      }
    </style>
  </defs>

  <rect width="980" height="620" rx="18" fill="#0D1117"/>
  <rect x="1" y="1" width="978" height="618" rx="18" stroke="#30363D"/>

  <circle cx="850" cy="95" r="150" fill="#7C3AED" opacity="0.10" filter="url(#softGlow)"/>
  <circle cx="120" cy="520" r="145" fill="#0EA5E9" opacity="0.08" filter="url(#softGlow)"/>

  <text x="42" y="50" class="mono" fill="#F8FAFC" font-size="13" font-weight="700">
    jpedro00 / README.md
  </text>

  <g transform="translate(42 78)">
    <rect width="896" height="500" rx="10" fill="#020617"/>
    <rect width="896" height="500" rx="10" stroke="#30363D"/>

    <rect width="896" height="36" rx="10" fill="#05070A"/>
    <path d="M0 28H896" stroke="#30363D"/>

    <circle cx="22" cy="18" r="6" fill="#FF5F56"/>
    <circle cx="44" cy="18" r="6" fill="#FFBD2E"/>
    <circle cx="66" cy="18" r="6" fill="#27C93F"/>

    <text x="365" y="23" class="mono" fill="#6B7280" font-size="12">
      github-stats - João Pedro
    </text>

    <text x="28" y="70" class="mono" fill="#39FF88" font-size="16" font-weight="700">
      $ gh about
    </text>

    <text x="28" y="99" class="mono" fill="#E5E7EB" font-size="15" font-weight="700">
      Junior Full-Stack Developer at TironiTech.
    </text>

    <text x="28" y="124" class="mono" fill="#E5E7EB" font-size="15" font-weight="700">
      Building real web applications, admin dashboards,
    </text>

    <text x="28" y="149" class="mono" fill="#E5E7EB" font-size="15" font-weight="700">
      APIs, browser extensions and production systems.
    </text>

    <text x="28" y="205" class="mono" fill="#39FF88" font-size="16" font-weight="700">
      $ gh focus
    </text>

    <text x="28" y="235" class="mono" fill="#E5E7EB" font-size="15" font-weight="700">
      Full-stack
    </text>
    <rect x="190" y="224" width="520" height="10" rx="5" fill="#111827"/>
    <rect x="190" y="224" width="455" height="10" rx="5" fill="#3B82F6"/>
    <text x="735" y="235" class="mono" fill="#8B949E" font-size="13">87%</text>

    <text x="28" y="263" class="mono" fill="#E5E7EB" font-size="15" font-weight="700">
      Frontend
    </text>
    <rect x="190" y="252" width="520" height="10" rx="5" fill="#111827"/>
    <rect x="190" y="252" width="405" height="10" rx="5" fill="#8B5CF6"/>
    <text x="735" y="263" class="mono" fill="#8B949E" font-size="13">78%</text>

    <text x="28" y="291" class="mono" fill="#E5E7EB" font-size="15" font-weight="700">
      Backend
    </text>
    <rect x="190" y="280" width="520" height="10" rx="5" fill="#111827"/>
    <rect x="190" y="280" width="355" height="10" rx="5" fill="#22C55E"/>
    <text x="735" y="291" class="mono" fill="#8B949E" font-size="13">68%</text>

    <text x="28" y="319" class="mono" fill="#E5E7EB" font-size="15" font-weight="700">
      Deploy
    </text>
    <rect x="190" y="308" width="520" height="10" rx="5" fill="#111827"/>
    <rect x="190" y="308" width="320" height="10" rx="5" fill="#F97316"/>
    <text x="735" y="319" class="mono" fill="#8B949E" font-size="13">61%</text>

    <text x="28" y="375" class="mono" fill="#39FF88" font-size="16" font-weight="700">
      $ gh stack --back-end
    </text>

    <text x="28" y="405" class="mono" fill="#E5E7EB" font-size="15" font-weight="700">Node.js</text>
    <text x="28" y="431" class="mono" fill="#E5E7EB" font-size="15" font-weight="700">Express</text>
    <text x="28" y="457" class="mono" fill="#E5E7EB" font-size="15" font-weight="700">PostgreSQL</text>
    <text x="28" y="483" class="mono" fill="#E5E7EB" font-size="15" font-weight="700">REST APIs</text>

    <text x="365" y="375" class="mono" fill="#39FF88" font-size="16" font-weight="700">
      $ gh stack --front-end
    </text>

    <text x="365" y="405" class="mono" fill="#E5E7EB" font-size="15" font-weight="700">React</text>
    <text x="365" y="431" class="mono" fill="#E5E7EB" font-size="15" font-weight="700">Vite</text>
    <text x="365" y="457" class="mono" fill="#E5E7EB" font-size="15" font-weight="700">Tailwind CSS</text>
    <text x="365" y="483" class="mono" fill="#E5E7EB" font-size="15" font-weight="700">JavaScript / TypeScript</text>

    <text x="635" y="375" class="mono" fill="#39FF88" font-size="16" font-weight="700">
      $ gh projects
    </text>

    <text x="635" y="405" class="mono" fill="#E5E7EB" font-size="15" font-weight="700">SignGuard</text>
    <text x="635" y="431" class="mono" fill="#E5E7EB" font-size="15" font-weight="700">SalesGame</text>
    <text x="635" y="457" class="mono" fill="#E5E7EB" font-size="15" font-weight="700">New Store / XNAMAI</text>
    <text x="635" y="483" class="mono" fill="#E5E7EB" font-size="15" font-weight="700">TironiTech Website</text>

    <rect x="28" y="526" width="12" height="20" fill="#11391F" opacity="0.95"/>
  </g>

  <rect x="1" y="1" width="978" height="618" rx="18" stroke="url(#stroke)" opacity="0.18"/>
</svg>
